<?xml version="1.0" encoding="utf-8"?>
<!-- Generator: Adobe Illustrator 25.4.8, SVG Export Plug-In . SVG Version: 6.00 Build 0)  -->
<svg version="1.1" id="Слой_1" xmlns="http://www.w3.org/2000/svg" xmlns:xlink="http://www.w3.org/1999/xlink" x="0px" y="0px"
	 viewBox="0 0 143 44" style="enable-background:new 0 0 143 44;" xml:space="preserve">
<style type="text/css">
	.st0{fill:#FFFFFF;}
</style>
<g>
	<g>
		<path class="st0" d="M25.9,30h-3.3h-3.3c0.2,2.2,3.3,5.8,3.3,5.8S25.7,32.3,25.9,30z"/>
		<path class="st0" d="M24.9,1c0.6,1.3,1.2,3.1,1.6,5.4h4.6c-0.7-1.1-1.4-2.1-2.3-2.9C27.6,2.3,26.3,1.5,24.9,1z"/>
		<path class="st0" d="M26,15.4h-3.4h-3.4C19,17.2,19,19.1,19,21.2h3.6h3.6C26.2,19.1,26.1,17.2,26,15.4z"/>
		<path class="st0" d="M26.2,22.7h-3.6H19c0,2,0.1,4,0.2,5.8h3.4H26C26.1,26.7,26.2,24.8,26.2,22.7z"/>
		<path class="st0" d="M9.5,30H2.1c0.8,2.1,2,4.1,3.4,5.8h6C10.6,34.1,9.9,32.1,9.5,30z"/>
		<path class="st0" d="M35.7,30c-0.5,2.1-1.1,4-2,5.8h6c1.4-1.7,2.6-3.7,3.4-5.8H35.7z"/>
		<path class="st0" d="M36,28.5h7.6c0.6-1.8,0.9-3.8,1-5.8h-8C36.5,24.7,36.4,26.6,36,28.5z"/>
		<path class="st0" d="M19.3,13.8h3.3h3.3c-0.2-2.2-0.4-4.1-0.7-5.8h-2.6H20C19.7,9.7,19.4,11.6,19.3,13.8z"/>
		<path class="st0" d="M9.2,15.4H1.5c-0.6,1.8-0.9,3.8-1,5.8h8C8.6,19.2,8.8,17.2,9.2,15.4z"/>
		<path class="st0" d="M35.7,13.8h7.4c-0.8-2.1-2-4.1-3.4-5.8h-6C34.5,9.8,35.2,11.7,35.7,13.8z"/>
		<path class="st0" d="M9.5,13.8c0.5-2.1,1.2-4.1,2-5.8h-6c-1.4,1.7-2.6,3.7-3.4,5.8H9.5z"/>
		<path class="st0" d="M29.9,2.5c1.1,1.1,2.1,2.5,3,4h5.4c-3-3-6.8-5.2-11.1-6.1C28.2,0.9,29.1,1.6,29.9,2.5z"/>
		<path class="st0" d="M36,15.4c0.3,1.9,0.5,3.8,0.6,5.8h8c-0.1-2-0.4-4-1-5.8H36z"/>
		<path class="st0" d="M32.9,37.4c-0.9,1.5-1.9,2.9-3,4c-0.9,0.9-1.8,1.5-2.7,2.1c4.3-0.9,8.1-3.1,11.1-6.1L32.9,37.4L32.9,37.4z"/>
		<path class="st0" d="M12.3,6.5c1.6-2.7,3.5-4.8,5.7-6.1C13.7,1.3,9.9,3.4,6.9,6.5H12.3z"/>
		<path class="st0" d="M15.2,41.4c-1.1-1.1-2.1-2.5-3-4H6.9c3,3,6.8,5.2,11.1,6.1C17,43,16.1,42.3,15.2,41.4z"/>
		<path class="st0" d="M14.1,6.5h4.6c0.4-2.2,1-4.1,1.6-5.4c-1.4,0.5-2.7,1.3-4,2.5C15.5,4.4,14.8,5.4,14.1,6.5z"/>
		<path class="st0" d="M24.9,6.5c-0.6-2.9-1.3-4.9-2-5.6c-0.1-0.1-0.3-0.2-0.3-0.2s-0.2,0.1-0.3,0.2c-0.7,0.7-1.4,2.7-2,5.6h2.4
			H24.9z"/>
		<path class="st0" d="M9.1,28.5c-0.3-1.9-0.5-3.8-0.6-5.8h-8c0.1,2,0.4,3.9,1,5.8H9.1z"/>
	</g>
	<g>
		<path class="st0" d="M57.1,31.7h-1.7L52,14.2h3.3l2.1,11.4l6-11.4h3.4L57.1,31.7z"/>
		<path class="st0" d="M67.7,26c0,0.2,0,0.4,0,0.5c0,0.9,0.3,1.5,0.8,2c0.5,0.5,1.3,0.7,2.2,0.7c0.5,0,1.1-0.1,1.7-0.4
			c0.6-0.3,1.2-0.6,1.5-0.9L73.5,31c-1,0.5-2.2,0.7-3.7,0.7c-1.6,0-2.8-0.5-3.8-1.5c-1-1-1.4-2.3-1.4-4c0-2.2,0.7-4,2.1-5.4
			s3.2-2.2,5.5-2.2c1.3,0,2.4,0.3,3.2,0.8s1.2,1.4,1.2,2.4c0,1.4-0.6,2.5-1.8,3.3c-1.2,0.8-2.7,1.2-4.5,1.2
			C69.4,26.4,68.5,26.3,67.7,26z M68.3,23.8c0.5,0.1,1.1,0.2,1.7,0.2c1.1,0,2-0.2,2.7-0.5s1.1-0.8,1.1-1.4c0-0.7-0.8-1-2.2-1
			c-0.6,0-1.2,0.3-1.8,0.8C69.1,22.4,68.6,23,68.3,23.8z"/>
		<path class="st0" d="M82.6,30.5c-0.5,0.7-1.2,1.1-2.1,1.1c-0.7,0-1.3-0.2-1.7-0.7c-0.4-0.5-0.6-1.1-0.6-1.8c0-1,0.2-2.3,0.6-4.1
			l2.4-11.3H84l-2.4,11.7c-0.3,1.7-0.5,2.9-0.5,3.6c0,0.5,0.1,0.8,0.4,1.1C81.8,30.3,82.1,30.5,82.6,30.5z"/>
		<path class="st0" d="M96.1,31.5h-2.9l0.2-1.2c-0.7,0.9-1.7,1.4-3.2,1.4c-1.5,0-2.6-0.4-3.5-1.3c-0.8-0.9-1.3-2-1.3-3.5
			c0-2.4,0.7-4.4,2-5.9c1.3-1.5,3.1-2.3,5.3-2.3c0.4,0,0.9,0.1,1.4,0.3c0.5,0.2,0.9,0.4,1.1,0.5l1.1-5.7h2.8L96.1,31.5z M93,21.1
			c-1.4,0-2.4,0.5-3.2,1.5c-0.8,1-1.2,2.3-1.2,3.8c0,1.9,0.8,2.9,2.4,2.9c1.7,0,2.8-1.4,3.3-4.1l0.6-3C94.4,21.5,93.8,21.1,93,21.1z
			"/>
		<path class="st0" d="M119.9,17.5c-0.9-0.6-1.9-1-3-1c-1.8,0-3.3,0.8-4.4,2.5c-1.2,1.7-1.8,3.5-1.8,5.6c0,1.3,0.3,2.4,1,3.2
			c0.7,0.8,1.6,1.2,2.7,1.2c1.8,0,3.2-0.5,4.3-1.5l-0.1,2.7c-1.1,1-2.7,1.5-4.8,1.5c-1.9,0-3.4-0.6-4.5-1.8
			c-1.2-1.2-1.7-2.8-1.7-4.8c0-3.2,0.9-5.8,2.6-8s4.1-3.2,6.9-3.2c1.4,0,2.6,0.2,3.7,0.7L119.9,17.5z"/>
		<path class="st0" d="M121.8,26.7c0-2.3,0.7-4.2,2.1-5.8c1.4-1.6,3.2-2.4,5.3-2.4c1.6,0,2.9,0.4,3.8,1.3c0.9,0.8,1.3,2,1.3,3.6
			c0,2.3-0.7,4.3-2.1,5.9s-3.1,2.4-5.3,2.4c-1.6,0-2.8-0.4-3.7-1.3C122.3,29.6,121.8,28.3,121.8,26.7z M124.9,26.6
			c0,1.8,0.8,2.7,2.3,2.7c1.2,0,2.2-0.6,2.9-1.7c0.7-1.1,1.1-2.5,1.1-4c0-1.7-0.8-2.5-2.3-2.5c-1.2,0-2.2,0.6-2.9,1.7
			C125.2,23.8,124.9,25.1,124.9,26.6z"/>
	</g>
</g>
</svg>
