<svg xmlns="http://www.w3.org/2000/svg" viewBox="0 0 143.00 44.00" data-guides="{&quot;vertical&quot;:[],&quot;horizontal&quot;:[]}"><defs/><path fill="rgb(255, 255, 255)" stroke="#1c75bc" fill-opacity="1" stroke-width="1" stroke-opacity="1" class="st0" id="tSvg13cafcee3e8" title="Path 51" d="M25.9 30C24.8 30 23.7 30 22.6 30C21.5 30 20.4 30 19.3 30C19.5 32.2 22.6 35.8 22.6 35.8C22.6 35.8 25.7 32.3 25.9 30Z"/><path fill="rgb(255, 255, 255)" stroke="#1c75bc" fill-opacity="1" stroke-width="1" stroke-opacity="1" class="st0" id="tSvg68758c4f73" title="Path 52" d="M24.9 1C25.5 2.3 26.1 4.1 26.5 6.4C28.0333 6.4 29.5667 6.4 31.1 6.4C30.4 5.3 29.7 4.3 28.8 3.5C27.6 2.3 26.3 1.5 24.9 1Z"/><path fill="rgb(255, 255, 255)" stroke="#1c75bc" fill-opacity="1" stroke-width="1" stroke-opacity="1" class="st0" id="tSvg21f4eae117" title="Path 53" d="M26 15.4C24.8667 15.4 23.7333 15.4 22.6 15.4C21.4667 15.4 20.3333 15.4 19.2 15.4C19 17.2 19 19.1 19 21.2C20.2 21.2 21.4 21.2 22.6 21.2C23.8 21.2 25 21.2 26.2 21.2C26.2 19.1 26.1 17.2 26 15.4Z"/><path fill="rgb(255, 255, 255)" stroke="#1c75bc" fill-opacity="1" stroke-width="1" stroke-opacity="1" class="st0" id="tSvg11c05952841" title="Path 54" d="M26.2 22.7C25 22.7 23.8 22.7 22.6 22.7C21.4 22.7 20.2 22.7 19 22.7C19 24.7 19.1 26.7 19.2 28.5C20.3333 28.5 21.4667 28.5 22.6 28.5C23.7333 28.5 24.8667 28.5 26 28.5C26.1 26.7 26.2 24.8 26.2 22.7Z"/><path fill="rgb(255, 255, 255)" stroke="#1c75bc" fill-opacity="1" stroke-width="1" stroke-opacity="1" class="st0" id="tSvg127489cd3b2" title="Path 55" d="M9.5 30C7.0333 30 4.5667 30 2.1 30C2.9 32.1 4.1 34.1 5.5 35.8C7.5 35.8 9.5 35.8 11.5 35.8C10.6 34.1 9.9 32.1 9.5 30Z"/><path fill="rgb(255, 255, 255)" stroke="#1c75bc" fill-opacity="1" stroke-width="1" stroke-opacity="1" class="st0" id="tSvg163cbadb8ee" title="Path 56" d="M35.7 30C35.2 32.1 34.6 34 33.7 35.8C35.7 35.8 37.7 35.8 39.7 35.8C41.1 34.1 42.3 32.1 43.1 30C40.6333 30 38.1667 30 35.7 30Z"/><path fill="rgb(255, 255, 255)" stroke="#1c75bc" fill-opacity="1" stroke-width="1" stroke-opacity="1" class="st0" id="tSvg56c1e5fa1f" title="Path 57" d="M36 28.5C38.5333 28.5 41.0667 28.5 43.6 28.5C44.2 26.7 44.5 24.7 44.6 22.7C41.9333 22.7 39.2667 22.7 36.6 22.7C36.5 24.7 36.4 26.6 36 28.5Z"/><path fill="rgb(255, 255, 255)" stroke="#1c75bc" fill-opacity="1" stroke-width="1" stroke-opacity="1" class="st0" id="tSvg809705465b" title="Path 58" d="M19.3 13.8C20.4 13.8 21.5 13.8 22.6 13.8C23.7 13.8 24.8 13.8 25.9 13.8C25.7 11.6 25.5 9.7 25.2 8C24.3333 8 23.4667 8 22.6 8C21.7333 8 20.8667 8 20 8C19.7 9.7 19.4 11.6 19.3 13.8Z"/><path fill="rgb(255, 255, 255)" stroke="#1c75bc" fill-opacity="1" stroke-width="1" stroke-opacity="1" class="st0" id="tSvgfe4c273650" title="Path 59" d="M9.2 15.4C6.6333 15.4 4.0667 15.4 1.5 15.4C0.9 17.2 0.6 19.2 0.5 21.2C3.1667 21.2 5.8333 21.2 8.5 21.2C8.6 19.2 8.8 17.2 9.2 15.4Z"/><path fill="rgb(255, 255, 255)" stroke="#1c75bc" fill-opacity="1" stroke-width="1" stroke-opacity="1" class="st0" id="tSvg14394c2968b" title="Path 60" d="M35.7 13.8C38.1667 13.8 40.6333 13.8 43.1 13.8C42.3 11.7 41.1 9.7 39.7 8C37.7 8 35.7 8 33.7 8C34.5 9.8 35.2 11.7 35.7 13.8Z"/><path fill="rgb(255, 255, 255)" stroke="#1c75bc" fill-opacity="1" stroke-width="1" stroke-opacity="1" class="st0" id="tSvg6ab1a413bb" title="Path 61" d="M9.5 13.8C10 11.7 10.7 9.7 11.5 8C9.5 8 7.5 8 5.5 8C4.1 9.7 2.9 11.7 2.1 13.8C4.5667 13.8 7.0333 13.8 9.5 13.8Z"/><path fill="rgb(255, 255, 255)" stroke="#1c75bc" fill-opacity="1" stroke-width="1" stroke-opacity="1" class="st0" id="tSvg81000c9e79" title="Path 62" d="M29.9 2.5C31 3.6 32 5 32.9 6.5C34.7 6.5 36.5 6.5 38.3 6.5C35.3 3.5 31.5 1.3 27.2 0.4C28.2 0.9 29.1 1.6 29.9 2.5Z"/><path fill="rgb(255, 255, 255)" stroke="#1c75bc" fill-opacity="1" stroke-width="1" stroke-opacity="1" class="st0" id="tSvg664a92ca2c" title="Path 63" d="M36 15.4C36.3 17.3 36.5 19.2 36.6 21.2C39.2667 21.2 41.9333 21.2 44.6 21.2C44.5 19.2 44.2 17.2 43.6 15.4C41.0667 15.4 38.5333 15.4 36 15.4Z"/><path fill="rgb(255, 255, 255)" stroke="#1c75bc" fill-opacity="1" stroke-width="1" stroke-opacity="1" class="st0" id="tSvg12707b4a82" title="Path 64" d="M32.9 37.4C32 38.9 31 40.3 29.9 41.4C29 42.3 28.1 42.9 27.2 43.5C31.5 42.6 35.3 40.4 38.3 37.4C36.5 37.4 34.7 37.4 32.9 37.4C32.9 37.4 32.9 37.4 32.9 37.4Z"/><path fill="rgb(255, 255, 255)" stroke="#1c75bc" fill-opacity="1" stroke-width="1" stroke-opacity="1" class="st0" id="tSvg16acc75d87e" title="Path 65" d="M12.3 6.5C13.9 3.8 15.8 1.7 18 0.4C13.7 1.3 9.9 3.4 6.9 6.5C8.7 6.5 10.5 6.5 12.3 6.5Z"/><path fill="rgb(255, 255, 255)" stroke="#1c75bc" fill-opacity="1" stroke-width="1" stroke-opacity="1" class="st0" id="tSvg1238672c10b" title="Path 66" d="M15.2 41.4C14.1 40.3 13.1 38.9 12.2 37.4C10.4333 37.4 8.6667 37.4 6.9 37.4C9.9 40.4 13.7 42.6 18 43.5C17 43 16.1 42.3 15.2 41.4Z"/><path fill="rgb(255, 255, 255)" stroke="#1c75bc" fill-opacity="1" stroke-width="1" stroke-opacity="1" class="st0" id="tSvgc11e456dc" title="Path 67" d="M14.1 6.5C15.6333 6.5 17.1667 6.5 18.7 6.5C19.1 4.3 19.7 2.4 20.3 1.1C18.9 1.6 17.6 2.4 16.3 3.6C15.5 4.4 14.8 5.4 14.1 6.5Z"/><path fill="rgb(255, 255, 255)" stroke="#1c75bc" fill-opacity="1" stroke-width="1" stroke-opacity="1" class="st0" id="tSvg472a1c29a1" title="Path 68" d="M24.9 6.5C24.3 3.6 23.6 1.6 22.9 0.9C22.8 0.8 22.6 0.7 22.6 0.7C22.6 0.7 22.4 0.8 22.3 0.9C21.6 1.6 20.9 3.6 20.3 6.5C21.1 6.5 21.9 6.5 22.7 6.5C23.4333 6.5 24.1667 6.5 24.9 6.5Z"/><path fill="rgb(255, 255, 255)" stroke="#1c75bc" fill-opacity="1" stroke-width="1" stroke-opacity="1" class="st0" id="tSvga0734ca8b7" title="Path 69" d="M9.1 28.5C8.8 26.6 8.6 24.7 8.5 22.7C5.8333 22.7 3.1667 22.7 0.5 22.7C0.6 24.7 0.9 26.6 1.5 28.5C4.0333 28.5 6.5667 28.5 9.1 28.5Z"/><path fill="rgb(255, 255, 255)" stroke="#1c75bc" fill-opacity="1" stroke-width="1" stroke-opacity="1" class="st0" id="tSvg1cc944f7d2" title="Path 70" d="M57.1 31.7C56.5333 31.7 55.9667 31.7 55.4 31.7C54.2667 25.8667 53.1333 20.0333 52 14.2C53.1 14.2 54.2 14.2 55.3 14.2C56 18 56.7 21.8 57.4 25.6C59.4 21.8 61.4 18 63.4 14.2C64.5333 14.2 65.6667 14.2 66.8 14.2C63.5667 20.0333 60.3333 25.8667 57.1 31.7Z"/><path fill="rgb(255, 255, 255)" stroke="#1c75bc" fill-opacity="1" stroke-width="1" stroke-opacity="1" class="st0" id="tSvg1957bf2960b" title="Path 71" d="M67.7 26C67.7 26.2 67.7 26.4 67.7 26.5C67.7 27.4 68 28 68.5 28.5C69 29 69.8 29.2 70.7 29.2C71.2 29.2 71.8 29.1 72.4 28.8C73 28.5 73.6 28.2 73.9 27.9C73.7667 28.9333 73.6333 29.9667 73.5 31C72.5 31.5 71.3 31.7 69.8 31.7C68.2 31.7 67 31.2 66 30.2C65 29.2 64.6 27.9 64.6 26.2C64.6 24 65.3 22.2 66.7 20.8C68.1 19.4 69.9 18.6 72.2 18.6C73.5 18.6 74.6 18.9 75.4 19.4C76.2 19.9 76.6 20.8 76.6 21.8C76.6 23.2 76 24.3 74.8 25.1C73.6 25.9 72.1 26.3 70.3 26.3C69.4 26.4 68.5 26.3 67.7 26ZM68.3 23.8C68.8 23.9 69.4 24 70 24C71.1 24 72 23.8 72.7 23.5C73.4 23.2 73.8 22.7 73.8 22.1C73.8 21.4 73 21.1 71.6 21.1C71 21.1 70.4 21.4 69.8 21.9C69.1 22.4 68.6 23 68.3 23.8Z"/><path fill="rgb(255, 255, 255)" stroke="#1c75bc" fill-opacity="1" stroke-width="1" stroke-opacity="1" class="st0" id="tSvga62b3f1e52" title="Path 72" d="M82.6 30.5C82.1 31.2 81.4 31.6 80.5 31.6C79.8 31.6 79.2 31.4 78.8 30.9C78.4 30.4 78.2 29.8 78.2 29.1C78.2 28.1 78.4 26.8 78.8 25C79.6 21.2333 80.4 17.4667 81.2 13.7C82.1333 13.7 83.0667 13.7 84 13.7C83.2 17.6 82.4 21.5 81.6 25.4C81.3 27.1 81.1 28.3 81.1 29C81.1 29.5 81.2 29.8 81.5 30.1C81.8 30.3 82.1 30.5 82.6 30.5Z"/><path fill="rgb(255, 255, 255)" stroke="#1c75bc" fill-opacity="1" stroke-width="1" stroke-opacity="1" class="st0" id="tSvg45a0d5c410" title="Path 73" d="M96.1 31.5C95.1333 31.5 94.1667 31.5 93.2 31.5C93.2667 31.1 93.3333 30.7 93.4 30.3C92.7 31.2 91.7 31.7 90.2 31.7C88.7 31.7 87.6 31.3 86.7 30.4C85.9 29.5 85.4 28.4 85.4 26.9C85.4 24.5 86.1 22.5 87.4 21C88.7 19.5 90.5 18.7 92.7 18.7C93.1 18.7 93.6 18.8 94.1 19C94.6 19.2 95 19.4 95.2 19.5C95.5667 17.6 95.9333 15.7 96.3 13.8C97.2333 13.8 98.1667 13.8 99.1 13.8C98.1 19.7 97.1 25.6 96.1 31.5ZM93 21.1C91.6 21.1 90.6 21.6 89.8 22.6C89 23.6 88.6 24.9 88.6 26.4C88.6 28.3 89.4 29.3 91 29.3C92.7 29.3 93.8 27.9 94.3 25.2C94.5 24.2 94.7 23.2 94.9 22.2C94.4 21.5 93.8 21.1 93 21.1Z"/><path fill="rgb(255, 255, 255)" stroke="#1c75bc" fill-opacity="1" stroke-width="1" stroke-opacity="1" class="st0" id="tSvg143a964606c" title="Path 74" d="M119.9 17.5C119 16.9 118 16.5 116.9 16.5C115.1 16.5 113.6 17.3 112.5 19C111.3 20.7 110.7 22.5 110.7 24.6C110.7 25.9 111 27 111.7 27.8C112.4 28.6 113.3 29 114.4 29C116.2 29 117.6 28.5 118.7 27.5C118.6667 28.4 118.6333 29.3 118.6 30.2C117.5 31.2 115.9 31.7 113.8 31.7C111.9 31.7 110.4 31.1 109.3 29.9C108.1 28.7 107.6 27.1 107.6 25.1C107.6 21.9 108.5 19.3 110.2 17.1C111.9 14.9 114.3 13.9 117.1 13.9C118.5 13.9 119.7 14.1 120.8 14.6C120.5 15.5667 120.2 16.5333 119.9 17.5Z"/><path fill="rgb(255, 255, 255)" stroke="#1c75bc" fill-opacity="1" stroke-width="1" stroke-opacity="1" class="st0" id="tSvgba224afc1f" title="Path 75" d="M121.8 26.7C121.8 24.4 122.5 22.5 123.9 20.9C125.3 19.3 127.1 18.5 129.2 18.5C130.8 18.5 132.1 18.9 133 19.8C133.9 20.6 134.3 21.8 134.3 23.4C134.3 25.7 133.6 27.7 132.2 29.3C130.8 30.9 129.1 31.7 126.9 31.7C125.3 31.7 124.1 31.3 123.2 30.4C122.3 29.6 121.8 28.3 121.8 26.7ZM124.9 26.6C124.9 28.4 125.7 29.3 127.2 29.3C128.4 29.3 129.4 28.7 130.1 27.6C130.8 26.5 131.2 25.1 131.2 23.6C131.2 21.9 130.4 21.1 128.9 21.1C127.7 21.1 126.7 21.7 126 22.8C125.2 23.8 124.9 25.1 124.9 26.6Z"/></svg>